<svg width="360" height="640" viewBox="0 0 360 640" fill="none" xmlns="http://www.w3.org/2000/svg">
<g clip-path="url(#clip0_1502_50)">
<rect width="360" height="640" fill="#1F222A"/>
<path d="M174 258L172.384 259.061L171.5 261L170.616 259.061L169 258L170.616 256.939L171.5 255L172.384 256.939L174 258Z" fill="white"/>
<circle opacity="0.1" cx="271.5" cy="505.5" r="390.5" fill="#4488C7"/>
<circle opacity="0.1" cx="271.5" cy="505.5" r="279.5" fill="#4488C7"/>
<circle opacity="0.1" cx="271.5" cy="505.5" r="183.5" fill="#4488C7"/>
<g clip-path="url(#clip1_1502_50)">
<path d="M271.989 662.989C359.245 662.989 429.979 592.255 429.979 505C429.979 417.745 359.245 347.01 271.989 347.01C184.734 347.01 114 417.745 114 505C114 592.255 184.734 662.989 271.989 662.989Z" fill="#35383F"/>
<path d="M195.21 637.574C195.18 637.634 195.141 637.673 195.111 637.733C195.348 637.792 195.576 637.871 195.813 637.92L195.21 637.574ZM185.271 414.9L184.955 414.257C187.595 413.861 187.773 412.002 189.781 411.32C192.065 410.568 191.284 411.389 193.529 411.32C195.348 411.241 196.456 412.566 198.533 411.597C198.028 412.487 197.208 413.1 196.387 413.703C194.676 414.919 192.926 416.166 190.888 416.64C188.851 417.105 186.458 416.611 185.271 414.9Z" fill="#70D5CE"/>
<path d="M216.877 555.722C216.838 557.116 216.017 558.332 215.305 559.509C212.13 564.691 210.202 570.694 209.777 576.776C209.351 582.6 209.609 589.78 204.535 592.648C201.638 594.26 197.564 593.973 195.635 596.692C195.032 597.513 194.745 598.552 194.458 599.521C193.212 604.06 191.956 608.599 190.71 613.138C189.09 612.993 187.471 612.829 185.855 612.644C187.753 613.247 189.069 615.818 187.931 617.578C186.112 616.619 183.719 617.756 182.71 619.586C181.751 621.405 181.889 623.621 182.423 625.628C184.075 631.562 189.148 636.348 195.121 637.772C194.083 639.74 190.908 638.88 188.97 637.564C175.135 628.209 164.692 613.959 159.925 597.948C158.244 592.302 157.166 586.299 153.873 581.443C151.124 577.339 146.971 574.333 144.221 570.229C140.365 564.335 139.643 556.691 135.173 551.301C132.671 548.226 128.804 544.448 131.019 541.155C131.909 539.8 133.808 538.514 133.056 537.08C132.809 536.616 132.305 536.329 131.909 535.933C130.406 534.321 131.445 531.79 132.196 529.713C133.442 526.103 133.442 522.247 132.908 518.39C129.15 515.028 126.183 510.854 124.324 506.167C123.217 503.309 121.743 499.739 118.678 499.699C117.886 497.484 117.066 495.269 116.275 493.054C115.988 493.845 115.206 494.339 114.346 494.448C116.72 458.244 131.316 425.392 154.031 399.937C154.536 399.72 155.03 399.433 155.535 399.146C160.924 396.001 165.216 391.284 170.428 387.853C171.496 387.141 172.712 386.458 174.037 386.597C175.323 386.706 176.539 388.021 176.074 389.237C175.896 389.742 175.471 390.137 175.036 390.454C168.915 395.662 162.243 400.185 155.139 403.942C154.289 404.368 153.389 404.872 153.003 405.732C152.281 407.196 153.497 409.016 155.04 409.55C156.573 410.084 158.294 409.767 159.866 409.411C158.541 411.3 158.145 413.842 158.828 416.057C160.291 416.195 160.756 414.198 161.191 412.803C162.971 407.265 171.802 405.011 171.229 399.176C173.622 400.422 176.055 397.633 177.518 395.349C178.982 393.025 182.235 390.74 184.025 392.778C184.124 393.915 184.263 395.062 184.371 396.209C187.516 395.418 190.7 394.597 193.845 393.806C192.055 395.062 191.452 397.742 192.481 399.67C193.519 401.599 196.09 402.568 198.127 401.777C198.098 403.458 196.594 404.744 195.23 405.742C191.768 408.353 188.05 411.033 184.015 412.319L184.945 414.247C184.846 414.287 184.737 414.326 184.629 414.326C182.057 414.573 179.338 412.724 176.589 413.08C174.907 413.298 172.841 413.298 171.871 415.008C171.733 415.226 171.13 418.222 171.555 417.975C173.058 417.115 174.551 416.255 176.025 415.404C176.48 416.62 176.589 417.975 176.341 419.3C178.161 419.122 180.06 419.508 181.672 420.477C179.99 424.374 175.669 426.984 171.417 426.658C171.377 425.372 171.308 424.087 171.268 422.801C167.767 422.514 164.909 425.521 163.159 428.527C161.379 431.563 160.024 435.034 157.087 436.962C155.307 438.179 153.122 438.644 151.193 439.642C149.304 440.681 147.554 442.649 147.95 444.755C148.128 445.754 148.77 446.684 148.741 447.722C148.632 449.65 146.387 450.55 144.884 451.796C142.313 453.942 141.67 457.878 138.921 459.767C136.923 461.161 134.273 461.132 131.949 461.844C129.625 462.556 127.301 464.88 128.24 467.134C127.093 467.53 125.699 466.67 125.59 465.453C121.486 473.533 118.776 482.324 117.669 491.333C119.706 492.757 121.773 489.504 122.168 487.041C122.594 484.579 124.74 481.355 126.737 482.819C126.272 486.359 125.808 489.86 125.353 493.4C125.244 494.082 125.175 494.794 125.501 495.398C125.897 496.149 126.747 496.466 127.4 497C129.219 498.572 128.972 501.361 129.081 503.754C129.19 506.681 130.159 509.539 131.692 512.041C131.543 511.537 131.445 511.042 131.336 510.538C134.124 510.894 137.022 509.994 139.128 508.135C140.236 507.136 141.166 505.85 142.56 505.346C143.994 504.812 145.566 505.198 147.03 505.593C151.569 506.839 156.395 508.234 159.431 511.804C160.964 513.623 161.933 515.918 163.762 517.411C167.906 520.912 174.917 519.369 178.705 523.265C181.741 526.41 181.177 531.483 180.356 535.805C178.28 534.668 175.501 537.525 176.717 539.563C177.825 538.346 179.11 537.061 180.722 537.061C182.364 537.021 183.798 539.276 182.581 540.314C185.439 536.665 192.441 538.168 193.549 542.707C197.554 542.994 201.588 543.271 205.594 543.597C204.822 549.472 217.124 549.818 216.877 555.722ZM192.52 390.384C190.977 391.146 188.851 390.286 188.278 388.664C187.694 387.042 188.792 385.034 190.473 384.649C191.531 384.401 193.005 384.52 193.331 383.482C193.43 383.165 193.371 382.819 193.371 382.493C193.331 380.535 195.081 378.913 196.97 378.419C198.859 377.934 200.857 378.31 202.775 378.686C203.459 380.113 203.654 381.725 203.329 383.274C202.014 383.333 200.698 383.383 199.383 383.442C199.502 385.628 199.284 388.377 197.257 389.188C195.437 389.91 193.064 388.565 191.551 389.791M213.001 368.559C216.59 366.838 219.626 364.129 223.167 362.309C229.258 359.184 236.369 358.907 243.212 358.69L289.938 357.236C286.329 359.214 282.719 361.201 279.1 363.179C276.153 364.801 272.8 366.463 269.567 365.543C269.497 368.144 271.861 370.557 274.472 370.537C268.073 374.493 259.193 370.448 252.439 373.771C249.61 375.165 247.326 377.796 244.211 378.29C242.411 378.577 240.542 378.092 238.752 378.488C235.756 379.14 233.867 381.979 231.652 384.095C229.1 386.538 225.352 388.209 222.019 387.042C218.687 385.875 216.946 380.92 219.616 378.606C220.932 377.469 222.811 377.281 224.363 376.48C225.916 375.689 227.142 373.563 225.975 372.267C225.471 371.704 224.64 371.486 224.175 370.883C223.671 370.23 223.72 369.301 223.305 368.589C221.723 365.81 217.322 369.548 214.326 368.43M260.3 381.702C262.407 381.217 264.236 379.971 266.204 379.061C268.172 378.152 270.516 377.618 272.444 378.577C273.018 380.011 271.366 381.316 269.913 381.83C267.112 382.812 264.109 383.074 261.181 382.592M387.643 397.416C387.045 397.487 386.439 397.45 385.853 397.307C383.174 396.733 381.136 394.666 378.842 393.163C373.551 389.663 366.332 389.208 360.616 392.066C361.971 390.098 362.653 387.665 362.505 385.272L361.684 385.559C352.319 380.129 341.342 374.493 331.127 378.142C328.763 379.002 326.627 380.288 324.234 381.108C321.693 381.998 318.874 382.364 316.698 383.937C314.483 385.509 313.306 388.98 315.205 390.869C316.817 392.481 319.388 392.046 321.643 392.263C323.858 392.481 326.4 394.686 325.183 396.585C315.393 401.164 305.573 405.782 295.783 410.4C300.282 411.864 303.259 416.967 302.29 421.614C298.997 422.188 295.822 420.19 292.5 419.973C287.674 419.726 283.065 423.978 282.966 428.804C282.828 433.63 287.258 438.09 292.084 438.021C295.694 437.981 299.234 435.805 302.735 436.725C302.873 433.432 305.128 430.643 307.442 428.29C311.942 423.78 318.37 419.706 324.382 421.921C326.35 422.633 328.031 423.958 329.673 425.273C333.283 428.131 336.892 431.019 340.512 433.917C341.659 432.74 342.796 431.553 343.943 430.416C345.911 432.493 347.879 434.559 349.877 436.666C350.875 435.983 351.914 435.341 352.913 434.658C353.625 436.517 354.376 438.337 355.098 440.196C355.385 438.159 355.632 436.161 355.879 434.154C358.243 434.223 360.745 434.292 362.881 433.224C365.027 432.186 366.599 429.615 365.699 427.4C365.235 426.223 364.127 425.293 363.909 424.037C363.445 421.535 367.015 419.825 369.339 420.962C371.623 422.069 372.77 424.68 373.739 427.073C374.273 424.641 374.768 422.247 375.312 419.815C377.557 425.696 380.754 431.169 384.776 436.013C377.448 434.619 369.724 435.42 362.871 438.238C365.057 441.314 368.805 443.133 372.562 442.985C374.244 442.945 376.103 442.56 377.388 443.628C378.358 444.449 378.605 445.774 378.783 446.99C379.356 450.422 379.93 453.814 380.464 457.206C376.597 454.031 371.03 454.387 365.986 454.288C360.943 454.15 355.049 452.755 353.19 448.078C351.192 450.333 350.302 453.547 350.875 456.553C345.654 455.307 339.651 453.309 338.148 448.157C334.074 449.66 329.001 447.059 327.893 442.876C327.497 441.413 327.389 439.623 326.103 438.841C325.322 438.377 324.313 438.446 323.384 438.555C315.63 439.455 307.907 440.315 300.193 441.215C295.981 441.719 291.62 442.223 287.901 444.29C284.183 446.328 281.226 450.333 281.651 454.555C274.541 458.778 268.509 464.889 264.434 472.079C263.149 474.294 262.041 476.836 262.545 479.338C262.901 481.266 264.187 482.908 264.583 484.806C265.265 488.06 263.406 491.205 262.624 494.419C260.409 503.566 267.351 512.18 273.789 519.102C276.825 522.316 280.336 525.817 284.766 525.995C287.516 526.103 290.126 524.887 292.697 523.878C300.055 520.981 308.065 519.656 315.957 519.972C314.167 521.367 316.026 524.403 318.251 524.867C320.466 525.332 322.859 524.61 325.005 525.362C329.901 527.112 329.228 534.292 327.013 538.979C328.12 538.762 329.268 538.544 330.405 538.336C329.805 539.898 329.198 541.457 328.585 543.014C335.3 543.864 337.842 552.695 336.279 559.301C334.746 565.917 330.82 571.989 330.711 578.783C330.682 582.501 331.819 586.111 332.966 589.641C335.834 598.611 338.692 607.58 341.56 616.58C349.57 617.539 354.169 607.353 361.605 604.169C364.394 602.952 367.677 602.705 369.863 600.628C371.969 598.631 371.287 593.943 368.577 593.943C372.256 593.548 375.401 590.185 375.509 586.467C375.549 585.429 375.401 584.39 375.539 583.362C375.786 581.898 376.716 580.613 377.606 579.357C383.282 571.208 386.961 561.873 390.64 552.656C391.599 550.184 392.568 547.761 393.528 545.288C397.167 536.101 400.776 526.954 404.415 517.767C405.84 514.157 407.273 510.587 408.697 506.968C406.73 510.221 401.587 509.796 398.65 507.364C395.683 504.941 394.141 501.252 391.817 498.216C389.849 495.605 387.198 493.291 386.269 490.107C385.735 488.287 385.834 486.319 385.517 484.421C384.795 480.307 382.086 476.885 380.227 473.167C378.367 469.448 377.398 464.632 380.009 461.369C387.525 474.482 394.358 487.981 400.539 501.816C401.221 499.67 402.794 497.811 404.791 496.772C406.255 495.981 407.896 495.665 409.439 495.022C413.514 493.232 416.332 488.91 416.332 484.48C416.292 480.05 413.474 475.728 409.36 473.978C407.323 473.117 404.999 472.84 403.071 471.654C401.142 470.516 399.748 467.906 400.964 466.007C402.101 464.217 404.861 464.257 406.749 465.255C408.648 466.294 410.042 468.044 411.822 469.221C413.108 470.081 414.611 470.645 416.006 471.436C423.551 475.758 425.41 485.588 426.992 494.161C427.853 498.77 428.822 503.348 429.969 507.848C430.009 506.879 429.999 505.88 429.999 504.921C429.959 463.367 413.889 425.6 387.643 397.416ZM402.111 449.334C401.073 449.265 400.114 448.582 399.283 447.939C397.928 446.871 396.563 445.615 396.168 443.934C395.703 441.937 396.662 439.642 395.594 437.862C395.09 437.002 394.2 436.468 393.448 435.865C391.48 434.292 390.047 432.038 389.512 429.615C389.048 427.469 389.72 424.611 391.906 424.255C392.944 424.077 394.081 424.65 394.546 425.61L393.082 426.401C395.545 426.688 396.692 430.406 394.803 432.008C394.556 432.255 394.23 432.473 394.23 432.829C394.23 433.046 394.368 433.254 394.556 433.402C396.089 435.084 398.383 435.687 400.381 436.755C402.378 437.793 404.346 439.722 404.03 441.937C403.387 442.184 402.784 442.402 402.141 442.649C401.459 443.331 402.003 444.547 402.715 445.22C403.427 445.892 404.356 446.575 404.396 447.574C404.396 448.651 403.179 449.403 402.111 449.334ZM403.14 559.282L400.559 561.111C401.459 564.276 399.659 567.984 396.603 569.22C394.991 569.873 392.845 570.16 392.301 571.811C391.846 573.216 392.934 574.64 393.082 576.103C393.32 578.536 391.045 580.356 389.404 582.165C387.762 583.975 386.892 587.377 389.077 588.465C389.582 588.722 390.165 588.771 390.729 588.821C393.102 589.028 395.703 589.098 397.641 587.713C403.199 583.747 397.918 572.988 403.407 568.914C404.188 568.34 405.167 567.925 405.592 567.055C406.888 564.493 402.111 561.952 403.14 559.282Z" fill="url(#paint0_linear_1502_50)"/>
<path d="M138 393L136.384 394.061L135.5 396L134.616 394.061L133 393L134.616 391.939L135.5 390L136.384 391.939L138 393Z" fill="white"/>
</g>
<path d="M337 308L335.384 309.061L334.5 311L333.616 309.061L332 308L333.616 306.939L334.5 305L335.384 306.939L337 308Z" fill="white"/>
<path d="M39 517L35.4443 519.475L33.5 524L31.5557 519.475L28 517L31.5557 514.525L33.5 510L35.4443 514.525L39 517Z" fill="white"/>
<path d="M263 322L259.444 324.475L257.5 329L255.556 324.475L252 322L255.556 319.525L257.5 315L259.444 319.525L263 322Z" fill="white"/>
<path d="M104 211L100.768 213.121L99 217L97.2325 213.121L94 211L97.2325 208.879L99 205L100.768 208.879L104 211Z" fill="white"/>
<path d="M42.8772 387.988L41.6829 387.699L40.528 388.097L40.8048 386.907L40.3934 385.749L41.5877 386.039L42.7426 385.64L42.4658 386.83L42.8772 387.988ZM43.6069 374.251L42.4126 373.961L41.2577 374.36L41.5346 373.17L41.1231 372.012L42.3175 372.301L43.4724 371.903L43.1955 373.093L43.6069 374.251Z" fill="white"/>
<path d="M310 196L308.384 197.061L307.5 199L306.616 197.061L305 196L306.616 194.939L307.5 193L308.384 194.939L310 196Z" fill="white"/>
</g>
<defs>
<linearGradient id="paint0_linear_1502_50" x1="272.173" y1="357.236" x2="375.5" y2="639" gradientUnits="userSpaceOnUse">
<stop stop-color="#70C8D5"/>
<stop offset="1" stop-color="#70C8D5" stop-opacity="0"/>
</linearGradient>
<clipPath id="clip0_1502_50">
<rect width="360" height="640" fill="white"/>
</clipPath>
<clipPath id="clip1_1502_50">
<rect width="316" height="316" fill="white" transform="translate(114 347)"/>
</clipPath>
</defs>
</svg>
