<svg width="244" height="99" viewBox="0 0 244 99" fill="none" xmlns="http://www.w3.org/2000/svg">
<ellipse opacity="0.2" cx="51.4452" cy="58.2994" rx="9.54272" ry="9.54273" transform="rotate(-49.9687 51.4452 58.2994)" fill="white" fill-opacity="0.6"/>
<ellipse cx="51.4454" cy="58.2998" rx="7.42212" ry="7.42212" transform="rotate(-139.969 51.4454 58.2998)" fill="white"/>
<path d="M72.8631 31.9789L73.675 32.6609L50.8109 64.8245L45.2077 60.1176L72.8631 31.9789Z" fill="white"/>
<path d="M105.498 37.2212H101.634L101.025 40.6987H105.475L105.369 41.3075H100.206L101.687 32.7836H106.821L106.71 33.3983H102.296L101.734 36.6124H105.603L105.498 37.2212ZM109.286 37.5315L111.341 34.9732H112.207L109.608 38.1169L111.265 41.3075H110.492L109.169 38.6379L107.003 41.3075H106.148L108.853 38.0467L107.266 34.9732H108.039L109.286 37.5315ZM115.093 41.4305C114.73 41.4226 114.387 41.3465 114.063 41.2021C113.743 41.0538 113.483 40.8236 113.284 40.5113L112.699 43.7429H112.008L113.53 34.9732H114.174L114.01 35.8689C114.561 35.1703 115.249 34.8327 116.077 34.8561C116.67 34.8717 117.133 35.0922 117.464 35.5176C117.796 35.943 117.968 36.546 117.979 37.3266C117.983 37.5725 117.972 37.8105 117.944 38.0408L117.921 38.2047C117.823 38.8877 117.64 39.4771 117.371 39.9727C117.101 40.4684 116.773 40.8392 116.387 41.085C116.001 41.327 115.569 41.4422 115.093 41.4305ZM117.248 38.0408L117.283 37.4847C117.295 36.8602 117.181 36.3704 116.943 36.0152C116.705 35.6601 116.352 35.4747 115.884 35.4591C115.474 35.4513 115.101 35.5527 114.765 35.7635C114.434 35.9703 114.153 36.2728 113.922 36.6709L113.401 39.721C113.526 40.0801 113.723 40.3533 113.993 40.5406C114.266 40.7279 114.592 40.8275 114.97 40.8392C115.536 40.8587 116.014 40.6479 116.405 40.2069C116.799 39.762 117.064 39.1434 117.201 38.3511L117.248 38.0408ZM121.457 41.4246C120.95 41.4168 120.51 41.2763 120.14 41.0031C119.769 40.726 119.496 40.3513 119.32 39.8791C119.148 39.4029 119.088 38.8897 119.139 38.3394L119.156 38.1403C119.211 37.5549 119.384 36.9987 119.677 36.4719C119.97 35.9411 120.341 35.5371 120.79 35.26C121.238 34.979 121.718 34.8444 122.23 34.8561C122.702 34.8639 123.1 34.9927 123.424 35.2425C123.752 35.4922 123.99 35.8396 124.138 36.2845C124.286 36.7294 124.333 37.2212 124.279 37.7598L124.232 38.1872H119.847L119.829 38.3277C119.771 38.7531 119.802 39.1609 119.923 39.5512C120.044 39.9376 120.241 40.2459 120.514 40.4762C120.791 40.7026 121.123 40.8197 121.51 40.8275C121.884 40.8392 122.222 40.767 122.522 40.6108C122.823 40.4547 123.1 40.2459 123.354 39.9844L123.764 40.3181C123.479 40.685 123.139 40.9641 122.745 41.1553C122.355 41.3426 121.925 41.4324 121.457 41.4246ZM122.195 35.4532C121.687 35.4337 121.233 35.6132 120.831 35.9918C120.429 36.3704 120.126 36.9031 119.923 37.59L123.6 37.5959L123.617 37.5081C123.687 36.9539 123.59 36.4777 123.324 36.0796C123.059 35.6776 122.682 35.4688 122.195 35.4532ZM128.88 35.5644C128.728 35.5332 128.574 35.5157 128.418 35.5118C127.973 35.5118 127.565 35.6484 127.194 35.9216C126.823 36.1909 126.576 36.5343 126.451 36.9519L125.701 41.3075H125.01L126.111 34.9732H126.796L126.585 35.9801C126.816 35.6054 127.093 35.3205 127.417 35.1254C127.744 34.9302 128.104 34.8366 128.494 34.8444C128.63 34.8444 128.79 34.8717 128.974 34.9263L128.88 35.5644ZM131.725 33.3515L131.444 34.9732H132.715L132.615 35.5469H131.345L130.642 39.7737L130.631 40.1367C130.631 40.5621 130.826 40.7806 131.216 40.7923C131.337 40.7962 131.526 40.7826 131.784 40.7514L131.755 41.3251C131.524 41.3914 131.29 41.4207 131.052 41.4129C130.642 41.4051 130.344 41.2626 130.156 40.9855C129.969 40.7045 129.901 40.2986 129.952 39.7678L130.648 35.5469H129.512L129.618 34.9732H130.742L131.029 33.3515H131.725ZM136.737 41.3075H136.034L137.141 34.9732H137.837L136.737 41.3075ZM137.334 33.1408C137.353 32.8871 137.521 32.7271 137.837 32.6607C137.989 32.688 138.097 32.7368 138.159 32.8071C138.226 32.8734 138.269 32.9846 138.288 33.1408C138.249 33.2891 138.192 33.3983 138.118 33.4686C138.044 33.5349 137.933 33.5837 137.785 33.615C137.468 33.5681 137.318 33.4101 137.334 33.1408ZM140.396 34.9732L140.185 36.0562C140.466 35.6659 140.79 35.3673 141.157 35.1605C141.527 34.9497 141.924 34.8483 142.345 34.8561C142.954 34.8717 143.397 35.0844 143.674 35.4942C143.951 35.904 144.049 36.468 143.967 37.1861L143.276 41.3075H142.585L143.276 37.1744C143.299 36.9519 143.303 36.7373 143.288 36.5304C143.221 35.8357 142.843 35.4786 142.152 35.4591C141.742 35.4513 141.36 35.5742 141.004 35.8279C140.649 36.0777 140.337 36.4562 140.068 36.9636L139.318 41.3075H138.628L139.728 34.9732H140.396ZM149.71 34.9732L149.511 36.0035C150.081 35.2229 150.797 34.8405 151.659 34.8561C152.104 34.8639 152.473 34.9751 152.766 35.1898C153.062 35.4044 153.246 35.703 153.316 36.0855C153.605 35.6913 153.94 35.3869 154.323 35.1722C154.709 34.9536 155.129 34.8483 155.582 34.8561C156.183 34.8678 156.628 35.0668 156.916 35.4532C157.209 35.8357 157.33 36.3665 157.279 37.0456L157.268 37.1802L156.571 41.3075H155.874L156.565 37.1685C156.589 36.9383 156.591 36.7197 156.571 36.5128C156.493 35.822 156.099 35.4708 155.388 35.4591C154.912 35.4513 154.473 35.6074 154.071 35.9274C153.673 36.2435 153.423 36.6397 153.322 37.1158L152.596 41.3075H151.899L152.602 37.1158C152.715 36.0386 152.319 35.4864 151.413 35.4591C150.965 35.4513 150.547 35.5918 150.161 35.8806C149.774 36.1694 149.515 36.5284 149.382 36.9578L148.633 41.3075H147.936L149.037 34.9732H149.71ZM162.285 41.3075C162.265 41.1592 162.259 41.0109 162.267 40.8626L162.32 40.4235C162.027 40.7396 161.692 40.9875 161.313 41.167C160.938 41.3465 160.532 41.4324 160.095 41.4246C159.561 41.4168 159.125 41.249 158.79 40.9211C158.458 40.5894 158.31 40.1737 158.345 39.6742C158.376 39.2566 158.519 38.8955 158.772 38.5911C159.03 38.2828 159.395 38.0447 159.867 37.8769C160.339 37.7052 160.868 37.6193 161.454 37.6193L162.747 37.6252L162.853 36.8992C162.9 36.466 162.806 36.1186 162.572 35.8572C162.338 35.5957 161.992 35.4571 161.535 35.4415C161.075 35.4337 160.673 35.5488 160.329 35.7869C159.99 36.0211 159.777 36.3314 159.691 36.7177H159.006C159.084 36.1635 159.369 35.7127 159.861 35.3654C160.353 35.0141 160.934 34.8424 161.606 34.8502C162.257 34.8658 162.759 35.0629 163.11 35.4415C163.465 35.8201 163.61 36.3118 163.543 36.9168L163.017 40.1015L162.97 40.6108C162.958 40.8216 162.974 41.0304 163.017 41.2373L163.005 41.3075H162.285ZM160.212 40.8099C160.642 40.8255 161.052 40.724 161.442 40.5055C161.836 40.283 162.162 39.9688 162.419 39.5629L162.659 38.1638L161.541 38.1579C160.831 38.1579 160.251 38.2847 159.803 38.5384C159.354 38.7882 159.106 39.1473 159.059 39.6156C159.024 39.9591 159.114 40.242 159.328 40.4645C159.547 40.687 159.842 40.8021 160.212 40.8099ZM166.4 34.9732L166.19 36.0562C166.471 35.6659 166.795 35.3673 167.161 35.1605C167.532 34.9497 167.928 34.8483 168.35 34.8561C168.959 34.8717 169.402 35.0844 169.679 35.4942C169.956 35.904 170.053 36.468 169.972 37.1861L169.281 41.3075H168.59L169.281 37.1744C169.304 36.9519 169.308 36.7373 169.292 36.5304C169.226 35.8357 168.847 35.4786 168.157 35.4591C167.747 35.4513 167.364 35.5742 167.009 35.8279C166.654 36.0777 166.342 36.4562 166.073 36.9636L165.323 41.3075H164.632L165.733 34.9732H166.4ZM175.024 41.3075C175.004 41.1592 174.998 41.0109 175.006 40.8626L175.059 40.4235C174.766 40.7396 174.431 40.9875 174.052 41.167C173.677 41.3465 173.271 41.4324 172.834 41.4246C172.3 41.4168 171.864 41.249 171.529 40.9211C171.197 40.5894 171.049 40.1737 171.084 39.6742C171.115 39.2566 171.258 38.8955 171.511 38.5911C171.769 38.2828 172.134 38.0447 172.606 37.8769C173.078 37.7052 173.607 37.6193 174.192 37.6193L175.486 37.6252L175.592 36.8992C175.638 36.466 175.545 36.1186 175.311 35.8572C175.076 35.5957 174.731 35.4571 174.274 35.4415C173.814 35.4337 173.412 35.5488 173.068 35.7869C172.729 36.0211 172.516 36.3314 172.43 36.7177H171.745C171.823 36.1635 172.108 35.7127 172.6 35.3654C173.092 35.0141 173.673 34.8424 174.345 34.8502C174.996 34.8658 175.498 35.0629 175.849 35.4415C176.204 35.8201 176.349 36.3118 176.282 36.9168L175.756 40.1015L175.709 40.6108C175.697 40.8216 175.713 41.0304 175.756 41.2373L175.744 41.3075H175.024ZM172.951 40.8099C173.381 40.8255 173.79 40.724 174.181 40.5055C174.575 40.283 174.901 39.9688 175.158 39.5629L175.398 38.1638L174.28 38.1579C173.57 38.1579 172.99 38.2847 172.542 38.5384C172.093 38.7882 171.845 39.1473 171.798 39.6156C171.763 39.9591 171.853 40.242 172.067 40.4645C172.286 40.687 172.581 40.8021 172.951 40.8099ZM180.527 34.8502C180.905 34.8619 181.251 34.9517 181.563 35.1195C181.875 35.2873 182.121 35.543 182.301 35.8864L182.517 34.9732H183.167L182.102 41.1963C182.027 41.7271 181.86 42.1954 181.598 42.6013C181.337 43.0072 181.001 43.3175 180.591 43.5321C180.185 43.7507 179.733 43.8522 179.233 43.8366C178.835 43.8288 178.454 43.7292 178.091 43.538C177.725 43.3429 177.43 43.0716 177.207 42.7243L177.641 42.3145C178.043 42.9194 178.568 43.2297 179.215 43.2453C179.793 43.2609 180.275 43.0853 180.661 42.7184C181.052 42.3554 181.298 41.8598 181.399 41.2314L181.551 40.4938C180.989 41.1377 180.312 41.448 179.52 41.4246C178.927 41.409 178.464 41.1826 178.132 40.7455C177.805 40.3045 177.633 39.7054 177.617 38.9482C177.594 38.2496 177.711 37.5588 177.968 36.8758C178.226 36.1928 178.575 35.6815 179.016 35.342C179.461 34.9985 179.965 34.8346 180.527 34.8502ZM178.349 38.2457L178.314 38.7902C178.302 39.4302 178.413 39.9259 178.648 40.2772C178.882 40.6245 179.227 40.806 179.684 40.8216C180.074 40.8372 180.439 40.7455 180.779 40.5465C181.118 40.3474 181.411 40.0527 181.657 39.6625L182.154 36.706C182.049 36.3275 181.866 36.0289 181.604 35.8103C181.346 35.5879 181.015 35.4708 180.609 35.4591C180.012 35.4395 179.516 35.6698 179.122 36.1499C178.731 36.6299 178.474 37.3285 178.349 38.2457ZM184.66 41.3075H183.957L185.064 34.9732H185.761L184.66 41.3075ZM185.257 33.1408C185.277 32.8871 185.444 32.7271 185.761 32.6607C185.913 32.688 186.02 32.7368 186.083 32.8071C186.149 32.8734 186.192 32.9846 186.211 33.1408C186.172 33.2891 186.116 33.3983 186.042 33.4686C185.967 33.5349 185.856 33.5837 185.708 33.615C185.392 33.5681 185.241 33.4101 185.257 33.1408ZM188.319 34.9732L188.108 36.0562C188.389 35.6659 188.713 35.3673 189.08 35.1605C189.451 34.9497 189.847 34.8483 190.268 34.8561C190.877 34.8717 191.32 35.0844 191.597 35.4942C191.874 35.904 191.972 36.468 191.89 37.1861L191.199 41.3075H190.508L191.199 37.1744C191.223 36.9519 191.227 36.7373 191.211 36.5304C191.145 35.8357 190.766 35.4786 190.075 35.4591C189.665 35.4513 189.283 35.5742 188.928 35.8279C188.573 36.0777 188.26 36.4562 187.991 36.9636L187.242 41.3075H186.551L187.651 34.9732H188.319ZM196.158 34.8502C196.536 34.8619 196.882 34.9517 197.194 35.1195C197.506 35.2873 197.752 35.543 197.932 35.8864L198.148 34.9732H198.798L197.733 41.1963C197.658 41.7271 197.491 42.1954 197.229 42.6013C196.968 43.0072 196.632 43.3175 196.222 43.5321C195.816 43.7507 195.364 43.8522 194.864 43.8366C194.466 43.8288 194.085 43.7292 193.722 43.538C193.356 43.3429 193.061 43.0716 192.838 42.7243L193.272 42.3145C193.674 42.9194 194.199 43.2297 194.846 43.2453C195.424 43.2609 195.906 43.0853 196.292 42.7184C196.683 42.3554 196.929 41.8598 197.03 41.2314L197.182 40.4938C196.62 41.1377 195.943 41.448 195.151 41.4246C194.558 41.409 194.095 41.1826 193.763 40.7455C193.436 40.3045 193.264 39.7054 193.248 38.9482C193.225 38.2496 193.342 37.5588 193.599 36.8758C193.857 36.1928 194.206 35.6815 194.647 35.342C195.092 34.9985 195.596 34.8346 196.158 34.8502ZM193.98 38.2457L193.945 38.7902C193.933 39.4302 194.044 39.9259 194.279 40.2772C194.513 40.6245 194.858 40.806 195.315 40.8216C195.705 40.8372 196.07 40.7455 196.41 40.5465C196.749 40.3474 197.042 40.0527 197.288 39.6625L197.785 36.706C197.68 36.3275 197.496 36.0289 197.235 35.8103C196.977 35.5879 196.646 35.4708 196.24 35.4591C195.643 35.4395 195.147 35.6698 194.753 36.1499C194.362 36.6299 194.105 37.3285 193.98 38.2457ZM204.172 34.9732L203.962 36.0562C204.243 35.6659 204.567 35.3673 204.933 35.1605C205.304 34.9497 205.7 34.8483 206.122 34.8561C206.731 34.8717 207.174 35.0844 207.451 35.4942C207.728 35.904 207.825 36.468 207.743 37.1861L207.053 41.3075H206.362L207.053 37.1744C207.076 36.9519 207.08 36.7373 207.064 36.5304C206.998 35.8357 206.619 35.4786 205.929 35.4591C205.519 35.4513 205.136 35.5742 204.781 35.8279C204.426 36.0777 204.114 36.4562 203.845 36.9636L203.095 41.3075H202.404L203.505 34.9732H204.172ZM211.367 41.4246C210.86 41.4168 210.421 41.2763 210.05 41.0031C209.679 40.726 209.406 40.3513 209.23 39.8791C209.059 39.4029 208.998 38.8897 209.049 38.3394L209.067 38.1403C209.121 37.5549 209.295 36.9987 209.588 36.4719C209.88 35.9411 210.251 35.5371 210.7 35.26C211.149 34.979 211.629 34.8444 212.14 34.8561C212.612 34.8639 213.01 34.9927 213.334 35.2425C213.662 35.4922 213.9 35.8396 214.049 36.2845C214.197 36.7294 214.244 37.2212 214.189 37.7598L214.142 38.1872H209.757L209.74 38.3277C209.681 38.7531 209.712 39.1609 209.833 39.5512C209.954 39.9376 210.152 40.2459 210.425 40.4762C210.702 40.7026 211.034 40.8197 211.42 40.8275C211.795 40.8392 212.132 40.767 212.433 40.6108C212.733 40.4547 213.01 40.2459 213.264 39.9844L213.674 40.3181C213.389 40.685 213.049 40.9641 212.655 41.1553C212.265 41.3426 211.836 41.4324 211.367 41.4246ZM212.105 35.4532C211.598 35.4337 211.143 35.6132 210.741 35.9918C210.339 36.3704 210.036 36.9031 209.833 37.59L213.51 37.5959L213.528 37.5081C213.598 36.9539 213.5 36.4777 213.235 36.0796C212.969 35.6776 212.593 35.4688 212.105 35.4532ZM217.374 33.3515L217.093 34.9732H218.363L218.264 35.5469H216.993L216.291 39.7737L216.279 40.1367C216.279 40.5621 216.474 40.7806 216.864 40.7923C216.985 40.7962 217.175 40.7826 217.432 40.7514L217.403 41.3251C217.173 41.3914 216.939 41.4207 216.701 41.4129C216.291 41.4051 215.992 41.2626 215.805 40.9855C215.618 40.7045 215.549 40.2986 215.6 39.7678L216.297 35.5469H215.161L215.266 34.9732H216.39L216.677 33.3515H217.374ZM220.447 39.8498V40.3474L220.676 39.803L222.988 34.9732H223.585L224.212 39.8147L224.247 40.4118L224.487 39.8088L226.583 34.9732H227.326L224.434 41.3075H223.837L223.14 36.2845L223.134 35.9333L223 36.2904L220.576 41.3075H219.979L219.306 34.9732L219.961 34.9673L220.447 39.8498ZM227.712 38.0818C227.783 37.469 227.97 36.909 228.275 36.4016C228.579 35.8903 228.958 35.502 229.41 35.2366C229.867 34.9712 230.361 34.8444 230.891 34.8561C231.414 34.8639 231.859 35.0083 232.226 35.2893C232.597 35.5664 232.866 35.9469 233.034 36.4309C233.206 36.9109 233.264 37.4437 233.21 38.0291L233.198 38.1403C233.081 39.1395 232.726 39.9415 232.132 40.5465C231.543 41.1514 230.835 41.4441 230.007 41.4246C229.297 41.4129 228.729 41.1514 228.304 40.6401C227.878 40.1288 227.67 39.4536 227.677 38.6145L227.695 38.2808L227.712 38.0818ZM228.392 38.2808C228.341 38.7453 228.374 39.1746 228.491 39.5688C228.612 39.9591 228.803 40.2654 229.065 40.4879C229.326 40.7104 229.652 40.8275 230.042 40.8392C230.464 40.847 230.848 40.7396 231.196 40.5172C231.547 40.2947 231.836 39.9805 232.062 39.5746C232.289 39.1687 232.435 38.7199 232.501 38.2281L232.519 38.035C232.589 37.2817 232.472 36.667 232.168 36.1909C231.867 35.7108 231.43 35.4649 230.856 35.4532C230.232 35.4337 229.691 35.6757 229.235 36.1791C228.782 36.6787 228.505 37.3441 228.403 38.1755L228.392 38.2808ZM237.993 35.5644C237.84 35.5332 237.686 35.5157 237.53 35.5118C237.085 35.5118 236.677 35.6484 236.307 35.9216C235.936 36.1909 235.688 36.5343 235.563 36.9519L234.814 41.3075H234.123L235.224 34.9732H235.909L235.698 35.9801C235.928 35.6054 236.205 35.3205 236.529 35.1254C236.857 34.9302 237.216 34.8366 237.606 34.8444C237.743 34.8444 237.903 34.8717 238.086 34.9263L237.993 35.5644ZM240.141 38.1286L239.204 38.919L238.789 41.3075H238.092L239.655 32.3153H240.352L239.357 38.0174L240.083 37.35L242.84 34.9732H243.771L240.656 37.672L242.84 41.3075H242.067L240.141 38.1286Z" fill="white"/>
<g filter="url(#filter0_d_1501_15)">
<path d="M91.901 76.1395C95.8901 69.3691 98.0167 61.6637 98.0648 53.8057C98.113 45.9476 96.081 38.2168 92.1751 31.398C88.2692 24.5793 82.6286 18.9155 75.8259 14.9817C69.0233 11.0479 61.3008 8.98416 53.4426 9.00008C45.5845 9.01599 37.8704 11.111 31.0838 15.0723C24.2971 19.0336 18.6794 24.7202 14.8012 31.5547C10.923 38.3892 8.92233 46.1283 9.00231 53.986C9.08228 61.8438 11.2401 69.5405 15.2566 76.2947L17.0288 75.2408C13.1982 68.7994 11.1403 61.459 11.0641 53.9651C10.9878 46.4711 12.8959 39.0904 16.5945 32.5723C20.2932 26.0542 25.6507 20.6309 32.1231 16.853C38.5956 13.0751 45.9525 11.0771 53.4468 11.0619C60.9412 11.0468 68.3061 13.0149 74.7938 16.7666C81.2815 20.5183 86.6609 25.9198 90.386 32.4229C94.111 38.9259 96.0489 46.2988 96.003 53.793C95.9571 61.2872 93.929 68.6359 90.1245 75.0928L91.901 76.1395Z" fill="url(#paint0_linear_1501_15)"/>
</g>
<path d="M27.6302 70.0266C27.938 68.3891 27.0845 67.1211 25.0696 66.2227L21.6275 64.7446C16.8003 62.4984 14.5055 59.4408 14.7434 55.5716C14.8414 53.8037 15.429 52.2314 16.5064 50.8547C17.5838 49.4636 19.074 48.384 20.9769 47.616C22.8798 46.8479 24.9577 46.4784 27.2104 46.5074C30.2327 46.5653 32.6604 47.4783 34.4933 49.2462C36.3403 51.0141 37.2498 53.3835 37.2218 56.3542H30.0858C30.1278 55.1369 29.8759 54.166 29.3302 53.4414C28.7985 52.7024 27.917 52.3184 26.6857 52.2894C25.4824 52.2604 24.419 52.5502 23.4955 53.1588C22.572 53.7675 22.0263 54.5862 21.8584 55.6151C21.5926 57.0642 22.628 58.2525 24.9647 59.1799C27.3154 60.1074 29.0224 60.9044 30.0858 61.571C33.4299 63.6432 34.997 66.4401 34.7872 69.9614C34.6752 71.7873 34.1085 73.3886 33.0871 74.7653C32.0657 76.1419 30.6455 77.207 28.8265 77.9606C27.0215 78.7141 24.9927 79.0764 22.7399 79.0474C21.0888 79.0184 19.5567 78.7503 18.1435 78.2431C16.7303 77.736 15.52 76.9969 14.5125 76.026C12.4697 74.0697 11.4902 71.4975 11.5742 68.3094L18.7731 68.3312C18.6892 69.9542 18.99 71.1859 19.6756 72.0264C20.3613 72.8524 21.5156 73.2654 23.1387 73.2654C24.342 73.2654 25.3425 72.9828 26.14 72.4177C26.9516 71.838 27.4483 71.041 27.6302 70.0266Z" fill="white"/>
<path d="M46.1418 67.8529L44.3368 78.5909H37.1588L42.4479 46.9421L53.4247 46.9639C56.8248 46.9639 59.4973 47.942 61.4422 49.8983C63.4011 51.8546 64.2616 54.3906 64.0238 57.5062C63.8559 59.6364 63.1982 61.4841 62.0509 63.0491C60.9035 64.6142 59.3854 65.8097 57.4964 66.6357C55.6215 67.4617 53.5157 67.8747 51.179 67.8747L46.1418 67.8529ZM47.1282 61.9623L51.4518 62.0057C53.2708 61.9623 54.663 61.3536 55.6285 60.1798C56.5939 58.9916 56.9787 57.5352 56.7828 55.8107C56.6709 54.9268 56.3421 54.2312 55.7964 53.724C55.2647 53.2023 54.5581 52.9125 53.6766 52.8545L48.6604 52.8328L47.1282 61.9623Z" fill="white"/>
<path d="M85.2009 65.1793H73.9722L72.6919 72.722H85.9775L84.991 78.5909H64.5275L69.8165 46.9421H90.322L89.3356 52.8328H76.029L74.8957 59.506H86.1454L85.2009 65.1793Z" fill="white"/>
<path d="M108.75 65.1793H97.521L96.2407 72.722H109.526L108.54 78.5909H88.0763L93.3653 46.9421H113.871L112.884 52.8328H99.5778L98.4445 59.506H109.694L108.75 65.1793Z" fill="white"/>
<path d="M111.625 78.5909L116.914 46.9421L125.897 46.9639C128.542 46.9639 130.85 47.6884 132.823 49.1375C134.796 50.5722 136.195 52.5357 137.021 55.0282C137.734 57.2164 137.951 59.5785 137.671 62.1144L137.525 63.4404C137.147 66.2806 136.237 68.8528 134.796 71.1569C133.355 73.461 131.501 75.2724 129.234 76.5912C126.967 77.8954 124.519 78.562 121.888 78.5909H111.625ZM123.127 52.8328L119.789 72.722L121.888 72.7437C124.351 72.7437 126.324 71.7583 127.807 69.7875C129.304 67.8167 130.193 64.8025 130.473 60.745L130.514 60.0277C130.612 57.7091 130.263 55.9484 129.465 54.7456C128.668 53.5429 127.471 52.9125 125.876 52.8545L123.127 52.8328Z" fill="white"/>
<path d="M164.599 52.8328H155.7L151.398 78.5909H144.199L148.522 52.8328H139.77L140.778 46.9421H165.586L164.599 52.8328Z" fill="white"/>
<path d="M184.139 65.1793H172.911L171.63 72.722H184.916L183.93 78.5909H163.466L168.755 46.9421H189.261L188.274 52.8328H174.968L173.834 59.506H185.084L184.139 65.1793Z" fill="white"/>
<path d="M203.805 70.0266C204.113 68.3891 203.26 67.1211 201.245 66.2227L197.803 64.7446C192.975 62.4984 190.681 59.4408 190.919 55.5716C191.017 53.8037 191.604 52.2314 192.682 50.8547C193.759 49.4636 195.249 48.384 197.152 47.616C199.055 46.8479 201.133 46.4784 203.386 46.5074C206.408 46.5653 208.836 47.4783 210.669 49.2462C212.516 51.0141 213.425 53.3835 213.397 56.3542H206.261C206.303 55.1369 206.051 54.166 205.505 53.4414C204.974 52.7024 204.092 52.3184 202.861 52.2894C201.658 52.2604 200.594 52.5502 199.671 53.1588C198.747 53.7675 198.202 54.5862 198.034 55.6151C197.768 57.0642 198.803 58.2525 201.14 59.1799C203.491 60.1074 205.198 60.9044 206.261 61.571C209.605 63.6432 211.172 66.4401 210.962 69.9614C210.85 71.7873 210.284 73.3886 209.262 74.7653C208.241 76.1419 206.821 77.207 205.002 77.9606C203.197 78.7141 201.168 79.0764 198.915 79.0474C197.264 79.0184 195.732 78.7503 194.319 78.2431C192.906 77.736 191.695 76.9969 190.688 76.026C188.645 74.0697 187.665 71.4975 187.749 68.3094L194.948 68.3312C194.864 69.9542 195.165 71.1859 195.851 72.0264C196.536 72.8524 197.691 73.2654 199.314 73.2654C200.517 73.2654 201.518 72.9828 202.315 72.4177C203.127 71.838 203.623 71.041 203.805 70.0266Z" fill="white"/>
<path d="M240.955 52.8328H232.056L227.753 78.5909H220.554L224.878 52.8328H216.125L217.133 46.9421H241.941L240.955 52.8328Z" fill="white"/>
<defs>
<filter id="filter0_d_1501_15" x="0.435993" y="0.435978" width="106.194" height="84.4227" filterUnits="userSpaceOnUse" color-interpolation-filters="sRGB">
<feFlood flood-opacity="0" result="BackgroundImageFix"/>
<feColorMatrix in="SourceAlpha" type="matrix" values="0 0 0 0 0 0 0 0 0 0 0 0 0 0 0 0 0 0 127 0" result="hardAlpha"/>
<feOffset/>
<feGaussianBlur stdDeviation="4.282"/>
<feColorMatrix type="matrix" values="0 0 0 0 0 0 0 0 0 0.929412 0 0 0 0 0.87451 0 0 0 1 0"/>
<feBlend mode="normal" in2="BackgroundImageFix" result="effect1_dropShadow_1501_15"/>
<feBlend mode="normal" in="SourceGraphic" in2="effect1_dropShadow_1501_15" result="shape"/>
</filter>
<linearGradient id="paint0_linear_1501_15" x1="-190267" y1="-29318.5" x2="-193483" y2="-29825.3" gradientUnits="userSpaceOnUse">
<stop offset="0.01" stop-color="#0CCAE3"/>
<stop offset="0.99" stop-color="#81EBFA"/>
</linearGradient>
</defs>
</svg>
